<svg width="194" height="24" viewBox="0 0 194 24" fill="none" xmlns="http://www.w3.org/2000/svg">
<path d="M12 0C5.373 0 0 5.373 0 12C0 18.627 5.373 24 12 24C18.627 24 24 18.627 24 12C24 5.37152 18.627 0 12 0ZM17.97 9.30598L17.979 9.68848C17.979 13.5945 15.0075 18.0945 9.57297 18.0945C7.90498 18.0945 6.35246 17.6055 5.04447 16.767C5.2755 16.794 5.51096 16.809 5.74949 16.809C7.134 16.809 8.40749 16.3365 9.41848 15.5444C8.1255 15.5205 7.03497 14.6655 6.65848 13.4925C6.83996 13.527 7.02298 13.5435 7.21497 13.5435C7.48497 13.5435 7.74595 13.509 7.99345 13.4415C6.64195 13.1685 5.62346 11.976 5.62346 10.545V10.5075C6.02245 10.7295 6.47695 10.8615 6.96145 10.878C6.16944 10.3485 5.64744 9.44404 5.64744 8.41953C5.64744 7.87804 5.79296 7.37104 6.04643 6.93455C7.50294 8.72254 9.68093 9.89853 12.1364 10.0215C12.0854 9.80552 12.06 9.57904 12.06 9.34806C12.06 7.71758 13.3829 6.39455 15.015 6.39455C15.8639 6.39455 16.632 6.75302 17.1719 7.32752C17.8439 7.194 18.4769 6.94802 19.0484 6.61052C18.8279 7.30053 18.36 7.87952 17.7494 8.2455C18.345 8.17499 18.9164 8.01447 19.4459 7.78049C19.05 8.37147 18.5475 8.89199 17.97 9.30598Z" fill="#1F2431"/>
<path fill-rule="evenodd" clip-rule="evenodd" d="M34 12C34 5.37 39.37 0 46 0C52.63 0 58 5.37 58 12C58 18.63 52.63 24 46 24C39.37 24 34 18.63 34 12ZM44.2 14.4H47.6C49.92 14.4 51.8 12.52 51.8 10.2C51.8 7.88 49.92 6 47.6 6H41.8V18H44.2V14.4ZM44.2 8.4H47.6C48.59 8.4 49.4 9.21 49.4 10.2C49.4 11.19 48.59 12 47.6 12H44.2V8.4Z" fill="#1F2431"/>
<path fill-rule="evenodd" clip-rule="evenodd" d="M102 12C102 5.37281 107.373 0 114 0C120.627 0 126 5.37281 126 12C126 18.6272 120.627 24 114 24C107.373 24 102 18.6272 102 12ZM121.628 14.0874C121.628 13.8923 121.608 13.701 121.575 13.5119C122.19 13.1839 122.579 12.5519 122.58 11.8414C122.58 10.7937 121.728 9.94152 120.68 9.94152C120.184 9.94152 119.723 10.1414 119.371 10.4814C118.076 9.62406 116.322 9.07777 114.381 9.00829L115.441 5.65492L118.312 6.33109C118.312 6.33785 118.311 6.34423 118.31 6.35059C118.309 6.35786 118.308 6.3651 118.308 6.37283C118.308 7.22922 119.005 7.92651 119.862 7.92651C120.718 7.92651 121.415 7.22922 121.415 6.37283C121.415 5.51644 120.718 4.81964 119.862 4.81964C119.204 4.81964 118.644 5.23139 118.417 5.80935L115.323 5.08088C115.188 5.04847 115.05 5.12655 115.008 5.25987L113.825 8.99896C111.795 9.02351 109.955 9.57299 108.604 10.4544C108.254 10.1321 107.798 9.94177 107.32 9.94177C106.273 9.94177 105.421 10.7935 105.421 11.8414C105.421 12.5198 105.785 13.139 106.362 13.4771C106.325 13.6774 106.301 13.8802 106.301 14.0874C106.301 16.896 109.739 19.1806 113.964 19.1806C118.19 19.1806 121.628 16.896 121.628 14.0874ZM119.861 7.39445C120.424 7.39445 120.882 6.93606 120.882 6.37258C120.882 5.8091 120.424 5.3512 119.861 5.3512C119.298 5.3512 118.839 5.8091 118.839 6.37258C118.839 6.93606 119.298 7.39445 119.861 7.39445ZM108.162 10.7694C107.922 10.5814 107.627 10.4731 107.32 10.4731C106.566 10.4731 105.953 11.0869 105.953 11.8411C105.953 12.2782 106.164 12.6813 106.506 12.935C106.791 12.1213 107.367 11.3823 108.162 10.7694ZM110.265 13.1451C110.265 12.5217 110.773 12.0145 111.396 12.0145C112.019 12.0145 112.526 12.5217 112.526 13.1451C112.526 13.7685 112.02 14.2755 111.396 14.2755C110.772 14.2755 110.265 13.7685 110.265 13.1451ZM116.743 16.497C116.173 17.0671 115.279 17.3438 114.009 17.3438C114.008 17.3438 114.006 17.3433 114.005 17.3428C114.003 17.3422 114.002 17.3416 114 17.3416C113.998 17.3416 113.997 17.3422 113.995 17.3427C113.994 17.343 113.994 17.3433 113.993 17.3435C113.992 17.3437 113.991 17.3438 113.99 17.3438C112.721 17.3438 111.826 17.0671 111.257 16.497C111.153 16.3934 111.153 16.2252 111.257 16.1211C111.361 16.0175 111.529 16.0175 111.633 16.1211C112.098 16.5864 112.869 16.812 113.99 16.812C113.992 16.812 113.994 16.8125 113.995 16.813C113.997 16.8135 113.998 16.814 114 16.814C114.002 16.814 114.003 16.8135 114.005 16.813C114.006 16.8125 114.008 16.812 114.009 16.812C115.131 16.812 115.902 16.5862 116.367 16.1211C116.471 16.0175 116.639 16.0175 116.744 16.1211C116.847 16.2252 116.847 16.3937 116.743 16.497ZM116.608 14.2755C115.985 14.2755 115.478 13.769 115.478 13.1451C115.478 12.5213 115.985 12.0145 116.608 12.0145C117.232 12.0145 117.739 12.5217 117.739 13.1451C117.739 13.7685 117.232 14.2755 116.608 14.2755ZM119.803 10.7955C120.048 10.5907 120.353 10.4731 120.679 10.4731C121.434 10.4731 122.047 11.0869 122.047 11.8411C122.047 12.3069 121.814 12.725 121.438 12.9752C121.163 12.1571 120.593 11.4132 119.803 10.7955Z" fill="#1F2431"/>
<path fill-rule="evenodd" clip-rule="evenodd" d="M182 24C188.627 24 194 18.6274 194 12C194 5.37258 188.627 0 182 0C175.373 0 170 5.37258 170 12C170 18.6274 175.373 24 182 24ZM180 8C180 9.10457 179.105 10 178 10C176.895 10 176 9.10457 176 8C176 6.89543 176.895 6 178 6C179.105 6 180 6.89543 180 8ZM188 8C188 9.10457 187.105 10 186 10C184.895 10 184 9.10457 184 8C184 6.89543 184.895 6 186 6C187.105 6 188 6.89543 188 8ZM188 16C188 17.1046 187.105 18 186 18C184.895 18 184 17.1046 184 16C184 14.8954 184.895 14 186 14C187.105 14 188 14.8954 188 16ZM180 16C180 17.1046 179.105 18 178 18C176.895 18 176 17.1046 176 16C176 14.8954 176.895 14 178 14C179.105 14 180 14.8954 180 16Z" fill="#1F2431"/>
<path d="M80.0175 11.9365C80.012 11.9365 80.0057 11.9362 80 11.936C79.994 11.9362 79.9878 11.9365 79.9823 11.9365C78.493 11.9365 77.1807 11.5595 76.4052 12.2715C75.9405 12.6987 75.7448 13.2135 75.7448 13.7677C75.7448 16.083 77.5998 16.3673 79.982 16.3673H80.0175C82.3997 16.3673 84.2547 16.0828 84.2547 13.7677C84.2547 13.2133 84.059 12.6987 83.5942 12.2715C82.8187 11.5595 81.5068 11.9365 80.0175 11.9365ZM77.992 15.1003C77.5387 15.1003 77.1713 14.5913 77.1713 13.9635C77.1713 13.3357 77.5387 12.827 77.992 12.827C78.4452 12.827 78.8132 13.3357 78.8132 13.9635C78.8132 14.5913 78.4452 15.1003 77.992 15.1003ZM82.0077 15.1003C81.5542 15.1003 81.1865 14.5913 81.1865 13.9635C81.1865 13.3357 81.5542 12.827 82.0077 12.827C82.4607 12.827 82.8285 13.3357 82.8285 13.9635C82.8285 14.5913 82.461 15.1003 82.0077 15.1003ZM80 0C73.3723 0 68 5.3725 68 12C68 18.6275 73.3723 24 80 24C86.6273 24 92 18.6275 92 12C92 5.3725 86.6273 0 80 0ZM81.0945 16.9252C80.8795 16.9252 80.452 16.9258 80 16.9263C79.5478 16.9258 79.12 16.9252 78.9052 16.9252C77.9545 16.9252 74.1895 16.8525 74.1895 12.314C74.1895 11.2698 74.5475 10.5058 75.1333 9.8695C75.0398 9.63875 75.035 8.32825 75.5338 7.07375C75.5338 7.07375 76.6777 7.19925 78.4087 8.387C78.7715 8.28675 79.3857 8.23675 80 8.23675C80.6138 8.23675 81.228 8.2865 81.5913 8.387C83.322 7.19925 84.4657 7.07375 84.4657 7.07375C84.9645 8.32825 84.96 9.63875 84.8665 9.8695C85.4525 10.5058 85.8105 11.27 85.8105 12.314C85.8105 16.8525 82.0452 16.9252 81.0945 16.9252Z" fill="#1F2431"/>
<path fill-rule="evenodd" clip-rule="evenodd" d="M136 12C136 5.29164 141.51 0 148 0C154.617 0 160 5.3832 160 12C160 18.6168 154.617 24 148 24C141.402 24 136 18.6257 136 12ZM149.091 17.4545H150.182C152.982 17.4545 154.521 14.1265 152.603 12C154.521 9.87353 152.982 6.54545 150.182 6.54545H149.091V5.45455C149.091 4.01062 146.909 4.01651 146.909 5.45455V6.54545H143.636C142.192 6.54545 142.198 8.72727 143.636 8.72727H144.727V15.2727H143.636C142.192 15.2727 142.198 17.4545 143.636 17.4545H146.909V18.5455C146.909 19.9894 149.091 19.9835 149.091 18.5455V17.4545ZM150.182 8.72729H146.909V10.9091H150.182C151.624 10.9091 151.624 8.72729 150.182 8.72729ZM150.182 13.0909H146.909V15.2727H150.182C151.624 15.2727 151.624 13.0909 150.182 13.0909Z" fill="#1F2431"/>
</svg>
